# xmcd CD database file
#
# Track frame offsets:
#	150
#	12888
#	27647
#	41638
#	58360
#	70338
#	82187
#	94715
#	113535
#	131050
#	145373
#	159815
#
# Disc length: 2328 seconds
#
# Revision: 0
# Processed by: cddbd v1.5.2PL0 Copyright (c) Steve Scherf et al.
# Submitted via: CDex 1.70beta2
#
DISCID=a609160c
DTITLE=Moe Bandy - Hit List
DYEAR=1900
DGENRE=Country
TTITLE0=Soft Lights And Hard Country Music
TTITLE1=Picture In A Frame
TTITLE2=Bandy The Rodeo Clown
TTITLE3=When Staying Together Hurts More Than Falling Apart
TTITLE4=Don't Leave Me In The Nighttime
TTITLE5=It's A Cheating Situation
TTITLE6=Beauty Lies In The Eyes Of The Beholder
TTITLE7=Americana
TTITLE8=Love Never Sleeps
TTITLE9=Someday Soon
TTITLE10=When A Heart Will Fall
TTITLE11=Till I'm Too Old To Die Young
EXTD=
EXTT0=
EXTT1=
EXTT2=
EXTT3=
EXTT4=
EXTT5=
EXTT6=
EXTT7=
EXTT8=
EXTT9=
EXTT10=
EXTT11=
PLAYORDER=
